<?xml version="1.0" encoding="utf-8"?>
<!-- Uploaded to: SVG Repo, www.svgrepo.com, Generator: SVG Repo Mixer Tools -->
<svg width="800px" height="800px" viewBox="0 -10.47 31.999 31.999" xmlns="http://www.w3.org/2000/svg">
  <g id="candy" transform="translate(-131.978 -92.468)">
    <g id="Group_499" data-name="Group 499">
      <g id="Group_490" data-name="Group 490">
        <g id="Group_487" data-name="Group 487">
          <g id="Group_486" data-name="Group 486">
            <path id="Path_306" data-name="Path 306" d="M162.348,98c1.466-1.465,1.477-2.75.082-2.75-1.3,0-4.13,2.4-4.506,2.727a5.023,5.023,0,0,0-5.023-5h-9.8a5.023,5.023,0,1,0,0,10.047h9.8a5.022,5.022,0,0,0,5.022-4.973c.372.32,3.186,2.7,4.507,2.7C163.845,100.747,163.834,99.481,162.348,98Z" fill="#ffa99f"/>
          </g>
        </g>
        <g id="Group_489" data-name="Group 489">
          <g id="Group_488" data-name="Group 488">
            <path id="Path_307" data-name="Path 307" d="M133.606,98c-1.486,1.486-1.5,2.752-.081,2.752s4.548-2.738,4.548-2.738-3.153-2.764-4.548-2.764S132.14,96.53,133.606,98Z" fill="#ffa99f"/>
          </g>
        </g>
      </g>
      <g id="shadow" opacity="0.35">
        <g id="Group_492" data-name="Group 492">
          <g id="Group_491" data-name="Group 491">
            <path id="Path_308" data-name="Path 308" d="M133.525,96.745c.918,0,2.592,1.194,3.633,2.012.542-.423.915-.748.915-.748s-3.153-2.764-4.548-2.764c-1.047,0-1.3.724-.745,1.7A1.222,1.222,0,0,1,133.525,96.745Z" fill="#ffffff"/>
          </g>
        </g>
      </g>
      <g id="Group_494" data-name="Group 494">
        <g id="Group_493" data-name="Group 493">
          <path id="Path_309" data-name="Path 309" d="M146.113,103.019h-3.944l3.691-10.051H149.8Z" fill="#85d0bc"/>
        </g>
      </g>
      <g id="Group_496" data-name="Group 496">
        <g id="Group_495" data-name="Group 495">
          <path id="Path_310" data-name="Path 310" d="M150.425,103.019h-3.944l3.691-10.051h3.944Z" fill="#f9cb99"/>
        </g>
      </g>
      <g id="shadow-2" data-name="shadow" opacity="0.35">
        <g id="Group_498" data-name="Group 498">
          <g id="Group_497" data-name="Group 497">
            <path id="Path_311" data-name="Path 311" d="M139.573,99.5a5.024,5.024,0,0,1,5.024-5.024h9.8a4.99,4.99,0,0,1,2.713.806,5.008,5.008,0,0,0-4.213-2.306h-9.8a5.017,5.017,0,0,0-2.716,9.24A4.993,4.993,0,0,1,139.573,99.5Z" fill="#ffffff"/>
          </g>
        </g>
      </g>
    </g>
    <g id="Group_511" data-name="Group 511">
      <g id="Group_504" data-name="Group 504">
        <g id="Group_501" data-name="Group 501">
          <g id="Group_500" data-name="Group 500">
            <path id="Path_312" data-name="Path 312" d="M152.9,103.519h-9.8a5.523,5.523,0,1,1,0-11.047h9.8a5.538,5.538,0,0,1,5.429,4.512c1.126-.9,2.985-2.239,4.1-2.239a1.39,1.39,0,0,1,1.435.791c.273.658-.031,1.538-.832,2.459.81.927,1.118,1.808.849,2.46a1.4,1.4,0,0,1-1.452.792c-1.13,0-2.984-1.326-4.1-2.219A5.544,5.544,0,0,1,152.9,103.519Zm-9.8-10.047a4.523,4.523,0,1,0,0,9.047h9.8a4.536,4.536,0,0,0,4.522-4.478l0-.035v-.031a4.533,4.533,0,0,0-4.523-4.5Zm15.559,4.537c1.415,1.161,3.066,2.238,3.774,2.238.285,0,.483-.066.527-.175.09-.216-.092-.853-.962-1.723a.5.5,0,0,1,0-.707c.861-.861,1.038-1.5.946-1.723-.067-.161-.408-.174-.511-.174C161.734,95.745,160.079,96.835,158.656,98.009Z" fill="#282b24"/>
          </g>
        </g>
        <g id="Group_503" data-name="Group 503">
          <g id="Group_502" data-name="Group 502">
            <path id="Path_313" data-name="Path 313" d="M133.525,101.247a1.4,1.4,0,0,1-1.452-.792c-.27-.652.039-1.533.849-2.46-.8-.921-1.1-1.8-.833-2.459a1.392,1.392,0,0,1,1.436-.791c1.507,0,4.328,2.406,4.878,2.889a.5.5,0,0,1,0,.752C138.067,98.679,135.083,101.247,133.525,101.247Zm0-5.5c-.1,0-.445.013-.512.174-.091.221.086.862.947,1.723a.5.5,0,0,1,0,.707c-.87.87-1.052,1.507-.963,1.723.045.109.243.175.528.175.79,0,2.573-1.25,3.775-2.238C136.091,97.01,134.3,95.745,133.525,95.745Z" fill="#282b24"/>
          </g>
        </g>
      </g>
      <g id="Group_506" data-name="Group 506">
        <g id="Group_505" data-name="Group 505">
          <path id="Path_314" data-name="Path 314" d="M146.266,103.419a.48.48,0,0,1-.17-.03.5.5,0,0,1-.3-.639l3.588-9.951a.5.5,0,0,1,.941.339l-3.588,9.951A.5.5,0,0,1,146.266,103.419Z" fill="#282b24"/>
        </g>
      </g>
      <g id="Group_508" data-name="Group 508">
        <g id="Group_507" data-name="Group 507">
          <path id="Path_315" data-name="Path 315" d="M142.018,103.419a.475.475,0,0,1-.169-.03.5.5,0,0,1-.3-.639l3.588-9.951a.5.5,0,1,1,.941.339l-3.589,9.951A.5.5,0,0,1,142.018,103.419Z" fill="#282b24"/>
        </g>
      </g>
      <g id="Group_510" data-name="Group 510">
        <g id="Group_509" data-name="Group 509">
          <path id="Path_316" data-name="Path 316" d="M150.514,103.519a.5.5,0,0,1-.47-.669l3.5-9.713a.5.5,0,0,1,.941.339l-3.5,9.713A.5.5,0,0,1,150.514,103.519Z" fill="#282b24"/>
        </g>
      </g>
    </g>
  </g>
</svg>