<?xml version="1.0" encoding="iso-8859-1"?>
<!-- Uploaded to: SVG Repo, www.svgrepo.com, Generator: SVG Repo Mixer Tools -->
<svg height="800px" width="800px" version="1.1" id="Layer_1" xmlns="http://www.w3.org/2000/svg" xmlns:xlink="http://www.w3.org/1999/xlink" 
	 viewBox="0 0 512.003 512.003" xml:space="preserve">
<path style="fill:#006837;" d="M97.626,103.813c0,0,38.461-30.748,90.774-39.467s98.667,7.893,98.667,7.893
	s-38.461,30.748-90.774,39.467S97.626,103.813,97.626,103.813z"/>
<path style="fill:#39B54A;" d="M97.626,103.813c0,0,38.461-30.748,90.774-39.467s98.667,7.893,98.667,7.893"/>
<path style="fill:#006837;" d="M375.428,113.003c-27.968-27.968-42.531-61.404-48.136-76.609c-3.252-2.833-5.269-4.388-5.269-4.388
	s-4.827,49.004,16.364,97.621c21.191,48.617,60.378,78.436,60.378,78.436s3.897-40.256-11.13-83.985
	C383.504,120.631,379.406,116.981,375.428,113.003z"/>
<path style="fill:#39B54A;" d="M327.292,36.396c-3.252-2.833-5.269-4.388-5.269-4.388s-4.827,49.004,16.364,97.621
	c21.191,48.617,60.378,78.436,60.378,78.436"/>
<path style="fill:#006837;" d="M460.305,163.93c0,0-47.376-13.426-84.877-50.926s-50.926-84.877-50.926-84.877
	s47.376,13.426,84.877,50.926S460.305,163.93,460.305,163.93z"/>
<path style="fill:#39B54A;" d="M460.305,163.93c0,0-47.376-13.426-84.877-50.926s-50.926-84.877-50.926-84.877"/>
<path style="fill:#51791B;" d="M176.342,378.57c0-39.241,13.778-74.255,35.337-97.282c-13.953-17.488-32.843-28.292-53.695-28.292
	c-42.896,0-77.669,45.474-77.669,101.568s34.774,101.568,77.669,101.568c12.017,0,23.35-3.674,33.506-10.044
	C181.945,426.576,176.342,403.45,176.342,378.57z"/>
<path style="fill:#3D5B14;" d="M112.324,354.564c0-48.891,26.425-89.69,61.612-99.368c-5.15-1.414-10.477-2.2-15.951-2.2
	c-42.896,0-77.669,45.474-77.669,101.568s34.774,101.568,77.669,101.568c5.426,0,10.688-0.845,15.791-2.253
	C138.668,444.119,112.324,403.38,112.324,354.564z"/>
<ellipse style="fill:#51791B;" cx="272.369" cy="378.571" rx="96.031" ry="125.572"/>
<path style="fill:#3D5B14;" d="M208.351,378.57c0-62.206,34.623-113.708,80.023-123.692c-5.216-1.147-10.54-1.882-16.005-1.882
	c-53.034,0-96.027,56.222-96.027,125.574s42.993,125.575,96.027,125.575c5.465,0,10.789-0.736,16.005-1.882
	C242.975,492.279,208.351,440.776,208.351,378.57z"/>
<path style="fill:#8CC63F;" d="M272.369,252.996c-4.074,0-8.062,0.44-12.003,1.084c47.355,7.74,84.024,60.466,84.024,124.49
	s-36.668,116.75-84.024,124.49c3.941,0.644,7.929,1.084,12.003,1.084c53.034,0,96.027-56.222,96.027-125.574
	S325.404,252.996,272.369,252.996z"/>
<path d="M471.701,175.325l-3.836-13.538c-0.571-2.014-14.425-49.786-52.929-88.29C377.95,36.512,332.423,22.272,327.102,20.7
	c2.44-6.788,4.66-13.688,6.623-20.7L317.13,0.002c-6.634,22.991-16.024,44.668-27.73,64.727
	c-4.616-1.607-50.271-16.806-102.29-8.134c-53.712,8.951-92.754,39.772-94.389,41.08l-10.99,8.786l13.245,4.747
	c1.552,0.556,30.981,10.903,69.654,10.903c10.433,0,21.544-0.753,32.956-2.656c30.788-5.131,56.736-17.442,73.602-27.267
	c-51.825,69.142-133.546,113.32-223.044,115.766c-4.351,0.119-7.842,3.588-7.842,7.941c0,4.485,3.698,8.183,8.18,8.058
	c36.316-1.004,71.455-8.678,104.079-21.908v43.316c-21.19,1.669-40.815,13.095-55.74,32.612
	c-15.711,20.546-24.364,47.747-24.364,76.592c0,28.845,8.653,56.045,24.364,76.592c16.191,21.172,37.911,32.833,61.161,32.833
	c10.397,0,20.521-2.39,30.199-7.096c3.024,5.351,6.376,10.448,10.044,15.246c19.658,25.706,45.988,39.864,74.143,39.864
	c28.153,0,54.484-14.158,74.143-39.864c19.179-25.08,29.741-58.31,29.741-93.567s-10.563-68.487-29.741-93.567
	c-18.031-23.579-41.678-37.432-67.194-39.566V106.712c13.286-16.842,24.864-35.143,34.461-54.637
	c0.605,19.461,4.028,50.001,17.407,80.693c21.758,49.917,61.155,80.28,62.823,81.548l11.219,8.538l1.359-14.033
	c0.137-1.417,2.693-29.557-5.142-64.611c29.057,19.27,55.239,26.861,56.72,27.28L471.701,175.325z M195.002,103.956
	c-31.772,5.294-61.565,0.764-78.97-3.211c15.177-9.406,41.89-23.354,73.66-28.649c20.208-3.368,39.607-2.759,55.536-0.849
	l-38.386,6.398l2.583,15.5l38.46-6.41C233.447,93.706,215.279,100.577,195.002,103.956z M263.604,125.108v120.505
	c-18.746,1.983-36.428,10.305-51.542,24.181c-12.582-13.183-27.687-21.391-43.786-23.856v-50.786
	C204.205,178.175,236.63,154.305,263.604,125.108z M168.276,447.208v-7.228h-15.714v8.014
	c-35.971-3.726-64.391-44.206-64.391-93.431s28.421-89.704,64.391-93.431v19.617h-8.381v15.714h32.475v-15.714h-8.381v-18.845
	c11.998,2.422,23.341,9.035,32.97,19.317c-1.021,1.234-2.031,2.489-3.02,3.782c-19.18,25.08-29.742,58.31-29.742,93.567
	c0,22.814,4.428,44.774,12.746,64.232C176.995,444.851,172.667,446.308,168.276,447.208z M360.54,378.57
	c0,61.787-35.84,112.606-81.222,117.353v-7.755h-15.714v7.539c-44.517-5.893-79.406-56.176-79.406-117.137
	s34.888-111.244,79.406-117.137v26.649h-7.333v15.714h32.475v-15.714h-9.428v-26.865C324.7,265.964,360.54,316.784,360.54,378.57z
	 M345.59,126.489c-9.994-22.927-13.95-46.142-15.399-63.731c8.381,16.674,21.186,37.306,39.682,55.802
	c3.616,3.616,7.315,7.016,11.05,10.206c8.004,24.262,10.039,47.402,10.369,62.199C378.489,178.563,358.494,156.093,345.59,126.489z
	 M394.37,119.502l-0.017-0.049l-0.024,0.017c-4.531-3.687-9.012-7.688-13.345-12.021c-14.484-14.484-25.264-30.625-32.968-44.697
	l27.515,27.515l11.111-11.111l-27.515-27.515c14.072,7.704,30.213,18.484,44.697,32.968c22.774,22.774,36.404,49.652,43.288,66.128
	C433.78,145.166,413.638,135.177,394.37,119.502z"/>
<g>
	<path style="fill:#FFFFFF;" d="M244.521,453.351c-17.547-20.581-28.022-55.274-28.022-92.986h15.714
		c0,33.522,9.298,65.3,24.267,82.856L244.521,453.351z"/>
	<path style="fill:#FFFFFF;" d="M115.666,394.716c-6.135-17.238-9.234-37.542-8.966-58.715l15.712,0.199
		c-0.245,19.333,2.54,37.745,8.058,53.248L115.666,394.716z"/>
</g>
</svg>