<?xml version="1.0" encoding="iso-8859-1"?>
<!-- Uploaded to: SVG Repo, www.svgrepo.com, Generator: SVG Repo Mixer Tools -->
<svg version="1.1" id="Layer_1" xmlns="http://www.w3.org/2000/svg" xmlns:xlink="http://www.w3.org/1999/xlink" 
	 viewBox="0 0 512 512" xml:space="preserve">
<g>
	<path style="fill:#E6E6E6;" d="M214.973,134.297c0,12.026-9.646,21.777-21.547,21.777H58.4c-11.899,0-21.546-9.751-21.546-21.777
		v-5.81c0-12.026,9.646-21.779,21.546-21.779h135.027c11.9,0,21.547,9.753,21.547,21.779v5.81H214.973z"/>
	<path style="fill:#E6E6E6;" d="M475.146,134.297c0,12.026-9.648,21.777-21.547,21.777H318.574c-11.9,0-21.546-9.751-21.546-21.777
		v-5.81c0-12.026,9.646-21.779,21.546-21.779h135.027c11.899,0,21.547,9.753,21.547,21.779v5.81H475.146z"/>
</g>
<path style="fill:#78B591;" d="M31.274,117.705c-7.414,0-13.424-6.068-13.424-13.549v-36.58c0-18.673,15.054-33.867,33.56-33.867
	h149.007c18.506,0,33.56,15.194,33.56,33.867v36.58c0,7.481-6.009,13.549-13.423,13.549H31.274z"/>
<path style="opacity:0.1;enable-background:new    ;" d="M61.649,104.155v-36.58c0-18.673,15.054-33.867,33.56-33.867H51.41
	c-18.506,0-33.56,15.194-33.56,33.867v36.58c0,7.481,6.01,13.549,13.424,13.549h43.799
	C67.659,117.705,61.649,111.637,61.649,104.155z"/>
<path style="fill:#D4EBE9;" d="M243.99,455.915c0,12.357-9.911,22.376-22.139,22.376H29.976c-12.227,0-22.139-10.02-22.139-22.376
	V172.47c0-12.359,9.912-22.378,22.139-22.378h191.875c12.227,0,22.139,10.018,22.139,22.378L243.99,455.915L243.99,455.915z"/>
<path style="opacity:0.1;enable-background:new    ;" d="M51.2,455.915V172.47c0-12.359,9.912-22.378,22.139-22.378H29.976
	c-12.227,0-22.139,10.018-22.139,22.378v283.445c0,12.357,9.912,22.376,22.139,22.376h43.363
	C61.112,478.292,51.2,468.272,51.2,455.915z"/>
<rect x="37.355" y="288.831" style="fill:#666666;" width="177.121" height="159.629"/>
<path style="fill:#FFEA92;" d="M291.448,117.705c-7.416,0-13.426-6.068-13.426-13.549v-36.58c0-18.673,15.055-33.867,33.561-33.867
	h149.006c18.506,0,33.559,15.194,33.559,33.867v36.58c0,7.481-6.008,13.549-13.423,13.549H291.448z"/>
<path style="opacity:0.1;enable-background:new    ;" d="M321.829,104.155v-36.58c0-18.673,15.055-33.867,33.561-33.867h-43.806
	c-18.506,0-33.561,15.194-33.561,33.867v36.58c0,7.481,6.01,13.549,13.426,13.549h43.806
	C327.839,117.705,321.829,111.637,321.829,104.155z"/>
<path style="fill:#D4EBE9;" d="M504.163,455.915c0,12.357-9.911,22.376-22.139,22.376H290.149c-12.227,0-22.139-10.02-22.139-22.376
	V172.47c0-12.359,9.911-22.378,22.139-22.378h191.876c12.227,0,22.139,10.018,22.139,22.378v283.445H504.163z"/>
<path style="opacity:0.1;enable-background:new    ;" d="M311.38,455.915V172.47c0-12.359,9.911-22.378,22.139-22.378h-43.37
	c-12.227,0-22.139,10.018-22.139,22.378v283.445c0,12.357,9.911,22.376,22.139,22.376h43.37
	C321.29,478.292,311.38,468.272,311.38,455.915z"/>
<path style="fill:#FFFFFF;" d="M474.645,301.502c0-15.832-12.7-28.67-28.365-28.67c-13.539,0-24.842,9.595-27.667,22.418
	c-2.542-12.901-13.801-22.627-27.313-22.627c-11.675,0-21.659,7.268-25.8,17.568c-0.365-18.657-15.432-33.673-33.978-33.673
	c-18.096,0-32.884,14.293-33.93,32.318l-0.066-0.006v159.625h177.118C474.645,448.454,474.645,302.088,474.645,301.502z"/>
<g>
	<ellipse style="fill:#CCCCCC;" cx="338.066" cy="319.06" rx="14.277" ry="14.431"/>
	<ellipse style="fill:#CCCCCC;" cx="372.057" cy="368.535" rx="14.277" ry="14.431"/>
	<ellipse style="fill:#CCCCCC;" cx="329.906" cy="413.884" rx="14.277" ry="14.431"/>
	<ellipse style="fill:#CCCCCC;" cx="436.652" cy="413.884" rx="14.277" ry="14.431"/>
	<ellipse style="fill:#CCCCCC;" cx="419.652" cy="334.169" rx="14.279" ry="14.431"/>
</g>
<g>
	<path style="fill:#4D4D4D;" d="M93.678,326.204h11.588c4.328,0,7.837-3.509,7.837-7.837c0-4.328-3.509-7.837-7.837-7.837H93.678
		c-4.328,0-7.837,3.509-7.837,7.837C85.841,322.695,89.35,326.204,93.678,326.204z"/>
	<path style="fill:#4D4D4D;" d="M146.561,326.204h11.588c4.328,0,7.837-3.509,7.837-7.837c0-4.328-3.509-7.837-7.837-7.837h-11.588
		c-4.328,0-7.837,3.509-7.837,7.837C138.724,322.695,142.233,326.204,146.561,326.204z"/>
	<path style="fill:#4D4D4D;" d="M66.743,360.564h11.588c4.328,0,7.837-3.509,7.837-7.837s-3.509-7.837-7.837-7.837H66.743
		c-4.328,0-7.837,3.509-7.837,7.837S62.415,360.564,66.743,360.564z"/>
	<path style="fill:#4D4D4D;" d="M119.625,360.564h11.587c4.328,0,7.837-3.509,7.837-7.837s-3.509-7.837-7.837-7.837h-11.587
		c-4.328,0-7.837,3.509-7.837,7.837S115.297,360.564,119.625,360.564z"/>
	<path style="fill:#4D4D4D;" d="M172.508,360.564h11.587c4.328,0,7.837-3.509,7.837-7.837s-3.509-7.837-7.837-7.837h-11.587
		c-4.328,0-7.837,3.509-7.837,7.837S168.18,360.564,172.508,360.564z"/>
	<path style="fill:#4D4D4D;" d="M105.266,377.876H93.678c-4.328,0-7.837,3.509-7.837,7.837c0,4.328,3.509,7.837,7.837,7.837h11.588
		c4.328,0,7.837-3.509,7.837-7.837C113.103,381.385,109.594,377.876,105.266,377.876z"/>
	<path style="fill:#4D4D4D;" d="M158.147,377.876h-11.588c-4.328,0-7.837,3.509-7.837,7.837c0,4.328,3.509,7.837,7.837,7.837h11.588
		c4.328,0,7.837-3.509,7.837-7.837C165.984,381.385,162.476,377.876,158.147,377.876z"/>
	<path style="fill:#4D4D4D;" d="M78.331,412.235H66.743c-4.328,0-7.837,3.509-7.837,7.837c0,4.328,3.509,7.837,7.837,7.837h11.588
		c4.328,0,7.837-3.509,7.837-7.837C86.168,415.744,82.659,412.235,78.331,412.235z"/>
	<path style="fill:#4D4D4D;" d="M131.212,412.235h-11.587c-4.328,0-7.837,3.509-7.837,7.837c0,4.328,3.509,7.837,7.837,7.837h11.587
		c4.328,0,7.837-3.509,7.837-7.837C139.049,415.744,135.54,412.235,131.212,412.235z"/>
	<path style="fill:#4D4D4D;" d="M184.095,412.235h-11.587c-4.328,0-7.837,3.509-7.837,7.837c0,4.328,3.509,7.837,7.837,7.837h11.587
		c4.328,0,7.837-3.509,7.837-7.837C191.932,415.744,188.423,412.235,184.095,412.235z"/>
	<path style="fill:#4D4D4D;" d="M214.472,378.679c-1.04-0.509-2.204-0.804-3.44-0.804h-11.587c-4.328,0-7.837,3.509-7.837,7.837
		c0,4.328,3.509,7.837,7.837,7.837h11.587c1.236,0,2.4-0.295,3.44-0.804V378.679z"/>
	<path style="fill:#4D4D4D;" d="M214.472,311.334c-1.04-0.509-2.204-0.804-3.44-0.804h-11.587c-4.328,0-7.837,3.509-7.837,7.837
		c0,4.328,3.509,7.837,7.837,7.837h11.587c1.236,0,2.4-0.295,3.44-0.804V311.334z"/>
	<path style="fill:#4D4D4D;" d="M52.384,310.53H40.796c-1.236,0-2.401,0.295-3.441,0.805V325.4c1.04,0.51,2.205,0.805,3.441,0.805
		h11.588c4.328,0,7.837-3.509,7.837-7.837C60.221,314.039,56.712,310.53,52.384,310.53z"/>
	<path style="fill:#4D4D4D;" d="M52.384,377.876H40.796c-1.236,0-2.401,0.295-3.441,0.805v14.065c1.04,0.51,2.205,0.805,3.441,0.805
		h11.588c4.328,0,7.837-3.509,7.837-7.837C60.221,381.385,56.712,377.876,52.384,377.876z"/>
</g>
<g>
	<path style="fill:#FFFFFF;" d="M170.611,194.278c14.288,5.917,19.085,10.715,25.003,25.003
		c5.918-14.287,10.715-19.086,25.004-25.003c-14.288-5.919-19.086-10.716-25.004-25.004
		C189.696,183.56,184.899,188.359,170.611,194.278z"/>
	<circle style="fill:#FFFFFF;" cx="211.571" cy="234.611" r="11.031"/>
	<path style="fill:#FFFFFF;" d="M432.38,194.278c14.288,5.917,19.086,10.715,25.003,25.003
		c5.917-14.287,10.715-19.086,25.004-25.003c-14.289-5.919-19.087-10.716-25.004-25.004
		C451.465,183.56,446.668,188.359,432.38,194.278z"/>
	<circle style="fill:#FFFFFF;" cx="473.339" cy="234.611" r="11.031"/>
</g>
<path d="M84.403,57.408H74.188c-4.328,0-7.837,3.509-7.837,7.837s3.509,7.837,7.837,7.837h10.215c4.328,0,7.837-3.509,7.837-7.837
	S88.731,57.408,84.403,57.408z"/>
<path d="M131.021,57.408h-10.214c-4.328,0-7.837,3.509-7.837,7.837s3.509,7.837,7.837,7.837h10.214c4.328,0,7.837-3.509,7.837-7.837
	S135.349,57.408,131.021,57.408z"/>
<path d="M177.639,57.408h-10.215c-4.328,0-7.837,3.509-7.837,7.837s3.509,7.837,7.837,7.837h10.215c4.328,0,7.837-3.509,7.837-7.837
	S181.967,57.408,177.639,57.408z"/>
<path d="M395.875,57.408h-19.578c-4.328,0-7.837,3.509-7.837,7.837s3.509,7.837,7.837,7.837h19.578c4.329,0,7.837-3.509,7.837-7.837
	S400.204,57.408,395.875,57.408z"/>
<path d="M222.81,142.281v-16.863c10.665-1.138,19.004-10.237,19.004-21.262V67.576c0-22.996-18.571-41.704-41.397-41.704H51.41
	c-22.827,0-41.397,18.708-41.397,41.704v36.58c0,11.025,8.338,20.124,19.004,21.262v16.863C12.932,142.794,0,156.134,0,172.47
	v283.445c0,16.66,13.448,30.213,29.976,30.213h191.875c16.528,0,29.976-13.553,29.976-30.213V229.878
	c0-4.328-3.509-7.837-7.837-7.837s-7.837,3.509-7.837,7.837v226.038c0,8.017-6.416,14.54-14.303,14.54H29.976
	c-7.886,0-14.303-6.522-14.303-14.54V172.47c0-8.018,6.417-14.541,14.303-14.541h191.875c7.886,0,14.303,6.523,14.303,14.541v17.702
	c0,4.328,3.509,7.837,7.837,7.837s7.837-3.509,7.837-7.837V172.47C251.827,156.134,238.895,142.794,222.81,142.281z
	 M220.554,109.868H99.265c-4.328,0-7.837,3.509-7.837,7.837c0,4.328,3.509,7.837,7.837,7.837h107.871v16.714H44.69v-16.714h15.915
	c4.328,0,7.837-3.509,7.837-7.837c0-4.328-3.509-7.837-7.837-7.837H31.274c-3.08,0-5.587-2.563-5.587-5.712v-36.58
	c0-14.353,11.539-26.03,25.723-26.03h149.007c14.183,0,25.723,11.678,25.723,26.03v36.58
	C226.14,107.305,223.633,109.868,220.554,109.868z"/>
<path d="M504.163,193.829c4.329,0,7.837-3.509,7.837-7.837V172.47c0-16.336-12.931-29.676-29.017-30.19v-16.863
	c10.664-1.138,19.001-10.237,19.001-21.262v-36.58c0-22.996-18.57-41.704-41.396-41.704H311.583
	c-22.827,0-41.398,18.708-41.398,41.704v36.58c0,11.025,8.338,20.124,19.005,21.262v16.863
	c-16.086,0.513-29.018,13.853-29.018,30.19v283.445c0,16.66,13.447,30.213,29.976,30.213h191.876
	c16.528,0,29.976-13.553,29.976-30.213V224.653c0-4.328-3.508-7.837-7.837-7.837s-7.837,3.509-7.837,7.837v231.262
	c0,8.017-6.417,14.54-14.303,14.54H290.149c-7.886,0-14.303-6.522-14.303-14.54V172.47c0-8.018,6.417-14.541,14.303-14.541h191.876
	c7.886,0,14.303,6.523,14.303,14.541v13.522C496.327,190.32,499.834,193.829,504.163,193.829z M480.726,109.868H371.984
	c-4.329,0-7.837,3.509-7.837,7.837c0,4.328,3.508,7.837,7.837,7.837h95.326v16.714H304.865v-16.714h28.458
	c4.329,0,7.837-3.509,7.837-7.837c0-4.328-3.508-7.837-7.837-7.837h-41.874c-3.081,0-5.589-2.563-5.589-5.712v-36.58
	c0-14.353,11.54-26.03,25.724-26.03h149.006c14.183,0,25.722,11.678,25.722,26.03v36.58
	C486.312,107.305,483.807,109.868,480.726,109.868z"/>
<path d="M446.28,264.997c-10.783,0-20.76,4.939-27.492,12.846c-6.615-8.035-16.587-13.056-27.488-13.056
	c-8.259,0-16.002,2.824-22.161,7.751c-6.821-14.082-21.204-23.856-37.616-23.856c-21.75,0-39.845,16.857-41.674,38.583
	c-0.104,0.511-0.158,1.035-0.158,1.565v159.625c0,4.328,3.508,7.837,7.837,7.837h177.118c4.329,0,7.837-3.509,7.837-7.837V301.502
	C482.482,281.373,466.242,264.997,446.28,264.997z M466.808,440.618H305.365V289.846c0.023-0.184,0.042-0.37,0.052-0.556
	c0.811-13.982,12.279-24.934,26.106-24.934c14.134,0,25.862,11.659,26.142,25.989c0.073,3.724,2.759,6.883,6.422,7.555
	c3.663,0.673,7.294-1.328,8.684-4.785c3.092-7.687,10.365-12.655,18.529-12.655c9.51,0,17.762,6.858,19.623,16.306
	c0.717,3.641,3.891,6.28,7.602,6.322c0.029,0,0.059,0,0.088,0c3.674,0,6.86-2.556,7.652-6.151
	c2.076-9.426,10.494-16.267,20.014-16.267c11.319,0,20.528,9.346,20.528,20.833v139.116H466.808z"/>
<path d="M214.472,280.993H37.355c-4.328,0-7.837,3.509-7.837,7.837v159.625c0,4.328,3.509,7.837,7.837,7.837h177.116
	c4.328,0,7.837-3.509,7.837-7.837V288.83C222.308,284.502,218.8,280.993,214.472,280.993z M206.635,440.618H45.192V296.666h161.443
	V440.618z"/>
</svg>