<?xml version="1.0" encoding="iso-8859-1"?>
<!-- Uploaded to: SVG Repo, www.svgrepo.com, Generator: SVG Repo Mixer Tools -->
<svg height="800px" width="800px" version="1.1" id="Layer_1" xmlns="http://www.w3.org/2000/svg" xmlns:xlink="http://www.w3.org/1999/xlink" 
	 viewBox="0 0 512.002 512.002" xml:space="preserve">
<polygon style="fill:#8C5549;" points="195.172,369.006 195.172,418.283 256.755,418.283 276.689,418.283 395.134,418.283 
	418.702,418.283 452.716,418.283 452.716,369.006 "/>
<g style="opacity:0.15;">
	<polygon style="fill:#202020;" points="195.172,369.006 195.172,418.283 201.525,418.283 203.582,418.283 215.8,418.283 
		218.232,418.283 221.741,418.283 221.741,369.006 	"/>
</g>
<path style="fill:#DCE0E2;" d="M184.162,254.28c0-0.973-0.042-2.002-0.112-3.064c-0.006-0.095-0.011-0.185-0.017-0.281
	c-0.022-0.307-0.055-0.625-0.082-0.939c-0.025-0.295-0.049-0.586-0.078-0.887c-0.015-0.143-0.036-0.289-0.051-0.432
	c-1.9-17.243-11.741-42.924-24.965-48.256c-0.206-0.091-0.413-0.167-0.62-0.248c-0.033-0.012-0.068-0.028-0.101-0.04L146.832,40.251
	h-2.269H88.928h-2.269l-11.304,159.88c-0.033,0.012-0.065,0.028-0.099,0.04c-0.208,0.081-0.416,0.158-0.62,0.248
	c-13.226,5.332-23.067,31.014-24.965,48.256c-0.017,0.144-0.036,0.29-0.051,0.432c-0.031,0.301-0.053,0.593-0.08,0.887
	c-0.027,0.314-0.059,0.633-0.082,0.939c-0.006,0.096-0.009,0.186-0.015,0.281c-0.071,1.061-0.112,2.09-0.112,3.064v71.752
	c0,0.001,0,0.001,0,0.001v139.344c0,14.872,8.436,27.77,20.779,34.19c-0.002,0-0.002,0-0.002,0c0.022,0.013,0.044,0.022,0.066,0.032
	c0.615,0.319,1.239,0.62,1.872,0.906c0.053,0.024,0.106,0.048,0.158,0.07c0.658,0.294,1.325,0.571,2.002,0.828
	c0.009,0.003,0.015,0.006,0.023,0.01c1.392,0.526,2.821,0.976,4.285,1.341c0.086,0.023,0.175,0.039,0.263,0.062
	c0.599,0.145,1.202,0.275,1.809,0.391c0.203,0.039,0.405,0.072,0.606,0.109c0.509,0.089,1.016,0.166,1.531,0.235
	c0.236,0.031,0.474,0.064,0.713,0.091c0.509,0.059,1.02,0.104,1.535,0.141c0.226,0.017,0.449,0.039,0.675,0.052
	c0.723,0.041,1.453,0.066,2.186,0.066c0.006,0,0.013,0.001,0.019,0.001h0.004h57.783h0.004c0.006,0,0.015-0.001,0.022-0.001
	c0.734,0,1.462-0.025,2.184-0.066c0.228-0.013,0.451-0.035,0.677-0.052c0.513-0.038,1.025-0.082,1.533-0.141
	c0.239-0.027,0.476-0.059,0.715-0.091c0.513-0.069,1.022-0.147,1.529-0.235c0.203-0.036,0.405-0.069,0.606-0.109
	c0.609-0.116,1.212-0.246,1.809-0.391c0.089-0.022,0.177-0.039,0.266-0.062c1.463-0.365,2.891-0.815,4.285-1.341
	c0.006-0.003,0.015-0.007,0.022-0.01c0.677-0.256,1.343-0.533,2.003-0.828c0.051-0.023,0.104-0.048,0.157-0.07
	c0.635-0.286,1.259-0.587,1.872-0.906c0.023-0.012,0.044-0.021,0.066-0.031v-0.001c12.343-6.421,20.777-19.317,20.777-34.19V326.033
	c0,0,0.002,0,0.002-0.001V254.28H184.162z"/>
<path style="fill:#E95353;" d="M148.395,40.251v-18.85c0-7.348-5.955-13.304-13.303-13.304h-38.34
	c-7.349,0-13.306,5.956-13.306,13.304v18.85C83.445,40.251,148.395,40.251,148.395,40.251z"/>
<g style="opacity:0.15;">
	<path style="fill:#202020;" d="M123.257,8.097H96.751c-7.349,0-13.306,5.956-13.306,13.304v18.85h26.506v-18.85
		C109.952,14.055,115.908,8.097,123.257,8.097z"/>
</g>
<polyline style="fill:#E95353;" points="74.066,254.28 49.331,254.28 49.331,254.28 49.331,326.032 49.331,326.033 49.331,465.378 
	61.182,465.378 172.31,465.378 184.16,465.378 184.16,326.033 184.162,326.032 184.162,254.28 184.16,254.28 102.137,254.28 "/>
<polygon style="fill:#EBECED;" points="151.79,110.357 146.832,40.251 144.563,40.251 88.928,40.251 86.659,40.251 81.702,110.357 
	"/>
<path style="fill:#EFAC52;" d="M458.623,341.026c-9.797-56.965-53.164-99.899-105.175-99.899h-62.564
	c-51.854,0-95.117,42.672-105.084,99.375c0,0-4.624,28.504,12.783,28.504h251.865C455.273,367.881,461.676,362.528,458.623,341.026z
	"/>
<g style="opacity:0.15;">
	<path style="fill:#202020;" d="M212.399,340.502c9.967-56.703,53.231-99.375,105.084-99.375h-26.601
		c-51.854,0-95.117,42.672-105.084,99.375c0,0-4.624,28.504,12.783,28.504h26.601C207.776,369.006,212.399,340.502,212.399,340.502z
		"/>
</g>
<g>
	<path style="fill:#D33D3D;" d="M276.689,418.283h-70.958h-0.839c-11.33,0-20.518,9.185-20.518,20.513v0.204
		c0,11.328,9.188,20.514,20.518,20.514h109.993L276.689,418.283z"/>
	<path style="fill:#D33D3D;" d="M442.156,418.283h-47.022l-38.195,41.232h85.217c11.332,0,20.515-9.187,20.515-20.514v-0.204
		C462.671,427.468,453.488,418.283,442.156,418.283z"/>
</g>
<g style="opacity:0.15;">
	<path style="fill:#202020;" d="M210.741,439.001v-0.204c0-11.329,9.187-20.513,20.518-20.513h-25.527h-0.839
		c-11.33,0-20.518,9.185-20.518,20.513v0.204c0,11.328,9.188,20.514,20.518,20.514h26.366
		C219.928,459.515,210.741,450.328,210.741,439.001z"/>
</g>
<polygon style="fill:#FCAF29;" points="335.912,482.213 395.134,418.283 276.689,418.283 "/>
<g style="opacity:0.15;">
	<polygon style="fill:#202020;" points="306.38,418.283 276.689,418.283 335.912,482.213 350.757,466.187 	"/>
</g>
<path style="fill:#EFAC52;" d="M433.23,503.903h16.591c5.715,0,10.352-7.251,10.352-16.191v-9.444v-0.41
	c0-0.235-0.019-0.467-0.024-0.701c0.004-0.24,0.024-0.469,0.024-0.707v-1.627v-6.403c0-0.238-0.019-0.47-0.024-0.705
	c0.004-0.236,0.024-0.467,0.024-0.702v-7.145H356.611l-20.699,22.345l-20.701-22.345h-1.4H184.162v7.145
	c0,0.235,0.015,0.466,0.022,0.702c-0.006,0.236-0.022,0.469-0.022,0.705v6.403v1.627c0,0.24,0.015,0.469,0.022,0.707
	c-0.006,0.233-0.022,0.465-0.022,0.701v0.41v9.444c0,8.941,4.633,16.191,10.349,16.191h212.806"/>
<g style="opacity:0.15;">
	<path style="fill:#202020;" d="M210.61,487.71v-9.444v-0.41c0-0.235,0.015-0.467,0.022-0.701c-0.008-0.24-0.022-0.469-0.022-0.707
		v-1.627v-6.403c0-0.238,0.015-0.47,0.022-0.705c-0.008-0.236-0.022-0.467-0.022-0.702v-7.145h-26.448v7.145
		c0,0.235,0.015,0.466,0.022,0.702c-0.006,0.236-0.022,0.469-0.022,0.705v6.403v1.627c0,0.24,0.015,0.469,0.022,0.707
		c-0.006,0.233-0.022,0.465-0.022,0.701v0.41v9.444c0,8.941,4.633,16.191,10.349,16.191h26.448
		C215.244,503.903,210.61,496.652,210.61,487.71z"/>
</g>
<g>
	<path style="fill:#202020;" d="M470.769,438.797c0-8.652-3.866-16.414-9.955-21.664v-45.01c4.78-4.894,8.376-14.279,5.826-32.234
		c-0.012-0.078-0.023-0.157-0.037-0.234c-10.626-61.782-58.215-106.624-113.156-106.624h-62.564
		c-41.089,0-78.138,25.166-98.624,63.779V254.28c0-1.093-0.042-2.268-0.134-3.668l-0.014-0.231
		c-0.019-0.268-0.043-0.543-0.069-0.818l-0.171-1.774c-1.885-17.111-11.062-43.305-25.981-52.803l-6.023-85.187
		c0-0.004,0-0.009,0-0.013l-4.613-65.243c0.781-1.245,1.238-2.712,1.238-4.291v-18.85c0-11.801-9.6-21.402-21.401-21.402h-38.34
		C84.95,0,75.348,9.601,75.348,21.402v18.85c0,2.427,1.072,4.598,2.763,6.082l-4.487,63.452c0,0.004,0,0.01,0,0.014L67.6,194.986
		c-14.922,9.499-24.096,35.696-25.984,52.848l-0.05,0.429c-0.025,0.241-0.045,0.475-0.066,0.709l-0.055,0.607
		c-0.023,0.25-0.045,0.501-0.068,0.824l-0.015,0.267c-0.085,1.279-0.13,2.494-0.13,3.61v211.097
		c0,17.453,9.632,33.306,25.136,41.373c0.05,0.025,0.098,0.051,0.147,0.074c0.723,0.372,1.456,0.726,2.259,1.088l3.295-7.398
		l-3.171,7.452c0.789,0.353,1.577,0.68,2.355,0.976c0.038,0.015,0.074,0.029,0.111,0.043c1.7,0.643,3.447,1.19,5.14,1.611
		c0.13,0.033,0.261,0.065,0.374,0.089c0.724,0.175,1.454,0.334,2.175,0.471l0.747,0.135c0.614,0.108,1.23,0.202,1.847,0.284
		c0.285,0.038,0.572,0.076,0.852,0.109c0.621,0.071,1.246,0.126,1.867,0.173l0.173,0.014c0.217,0.018,0.434,0.035,0.647,0.048
		c0.897,0.051,1.726,0.077,2.53,0.079c0.048,0.001,0.094,0.001,0.14,0.001h57.786c0.046,0,0.093,0,0.139-0.001
		c0.801-0.002,1.629-0.028,2.516-0.079c0.221-0.012,0.442-0.029,0.661-0.048l0.164-0.014c0.625-0.046,1.25-0.101,1.862-0.172
		c0.285-0.033,0.569-0.07,0.862-0.11c0.621-0.083,1.238-0.177,1.868-0.288l0.145-0.025c0.2-0.035,0.398-0.069,0.563-0.101
		c0.742-0.141,1.475-0.3,2.26-0.49l-0.09,0.022l0.35-0.081c1.734-0.432,3.48-0.978,5.186-1.623c0.054-0.021,0.108-0.041,0.16-0.063
		c0.754-0.288,1.508-0.601,2.301-0.954c0.027-0.012,0.158-0.07,0.184-0.083c0.744-0.335,1.476-0.688,2.196-1.058
		c0.052-0.026,0.104-0.053,0.155-0.08c4.082-2.124,7.742-4.798,10.942-7.888c3.021,7.862,9.179,13.137,16.451,13.137h212.806
		c4.473,0,8.097-3.624,8.097-8.097c0-4.473-3.624-8.097-8.097-8.097H194.843c-0.863-0.659-2.584-3.554-2.584-8.094v-9.444
		l0.018-0.891c0.004-0.145,0.004-0.289,0-0.433l-0.018-8.494l0.017-0.485h119.398l18.297,19.751c1.341,1.448,3.157,2.348,5.1,2.551
		c0.277,0.029,0.558,0.044,0.84,0.044c2.255,0,4.408-0.94,5.94-2.594l18.297-19.751h91.906c0.004,0.144,0.011,0.292,0.021,0.456
		l-0.003,8.057c-0.009,0.178-0.016,0.355-0.019,0.538c-0.001,0.096-0.001,0.193,0,0.289c0.003,0.176,0.011,0.352,0.023,0.554v9.854
		c0,4.54-1.722,7.436-2.587,8.094h-16.259c-4.473,0-8.097,3.624-8.097,8.097s3.624,8.097,8.097,8.097h16.591
		c10.345,0,18.449-10.669,18.449-24.289v-9.854c0-0.217-0.006-0.434-0.018-0.699c0.011-0.234,0.018-0.47,0.018-0.708v-8.03
		c0-0.218-0.006-0.434-0.018-0.702c0.011-0.234,0.018-0.47,0.018-0.705v-7.145c0-2.073-0.786-3.958-2.066-5.391
		c2.884-4.465,4.566-9.776,4.566-15.475L470.769,438.797L470.769,438.797z M454.574,438.797v0.204
		c0,6.847-5.571,12.417-12.418,12.417h-66.678l23.193-25.037h43.484C449.003,426.381,454.574,431.951,454.574,438.797z
		 M395.134,410.186H276.689h-71.797h-1.624v-33.083h241.35v33.083h-2.463H395.134z M273.153,426.381l4.54,4.901l18.654,20.138
		h-91.454c-6.849,0-12.42-5.57-12.42-12.417v-0.204c0-6.846,5.571-12.416,12.42-12.416h68.26V426.381z M193.785,341.836
		c9.464-53.667,50.289-92.611,97.098-92.611h62.564c46.998,0,87.85,39.13,97.175,93.057c1.719,12.222-0.134,17.512-1.595,18.627
		H198.582c-1.692,0-2.266-0.505-2.708-1.021C193.041,356.573,192.954,347.18,193.785,341.836z M143.099,102.26H90.392l3.812-53.911
		h45.084L143.099,102.26z M91.543,21.402c0-2.871,2.336-5.207,5.208-5.207h38.34c2.871,0,5.206,2.336,5.206,5.207v10.752H91.543
		V21.402z M77.664,207.93c0.084-0.035,0.133-0.055,0.216-0.092l0.311-0.12v-0.001c0.054-0.021,0.107-0.042,0.159-0.064
		c2.877-1.146,4.862-3.841,5.082-6.951l5.815-82.249h54.997l5.815,82.249c0.221,3.127,2.225,5.833,5.125,6.968
		c0.029,0.013,0.062,0.024,0.092,0.037l0.329,0.127c0.074,0.032,0.149,0.065,0.225,0.095c7.756,3.127,16.773,21.156,19.489,38.253
		h-73.181c-4.473,0-8.097,3.624-8.097,8.097s3.624,8.097,8.097,8.097h73.929v63.469c-0.001,0.063-0.002,0.124-0.002,0.187V457.28
		H57.428V262.377h16.637c4.473,0,8.097-3.624,8.097-8.097c0-4.473-3.624-8.097-8.097-8.097H58.176
		C60.904,229.053,69.912,211.055,77.664,207.93z M159.734,492.34c-0.016,0.009-0.032,0.016-0.048,0.023
		c-0.032,0.017-0.066,0.033-0.098,0.051c-0.48,0.249-0.97,0.486-1.409,0.683l-0.187,0.084c-0.518,0.231-1.042,0.449-1.574,0.651
		c-0.041,0.016-0.082,0.031-0.123,0.049c-1.066,0.397-2.15,0.736-3.226,1.007l-0.26,0.06c-0.467,0.112-0.94,0.215-1.452,0.313
		l-0.455,0.08c-0.398,0.069-0.801,0.132-1.196,0.185l-0.585,0.073c-0.396,0.046-0.796,0.08-1.202,0.11l-0.532,0.042
		c-0.613,0.035-1.207,0.032-1.855,0.055H87.961c-0.612-0.012-1.242-0.019-1.863-0.055l-0.532-0.042
		c-0.401-0.029-0.8-0.064-1.204-0.111l-0.57-0.072c-0.406-0.054-0.808-0.116-1.172-0.179l-0.514-0.092
		c-0.479-0.092-0.957-0.195-1.367-0.293l-0.267-0.063c-1.104-0.275-2.215-0.621-3.313-1.033c-0.029-0.012-0.059-0.023-0.087-0.033
		c-0.528-0.201-1.048-0.417-1.562-0.647l-3.305,7.392l3.174-7.45c-0.502-0.227-0.998-0.466-1.486-0.719
		c-0.006-0.003-0.013-0.007-0.019-0.01c-0.009-0.004-0.018-0.01-0.026-0.014c-7.655-3.982-13.112-10.868-15.323-18.91h116.444
		C172.766,481.486,167.343,488.349,159.734,492.34z M295.229,426.381h81.365l-25.912,27.971c-0.004,0.004-0.009,0.008-0.012,0.012
		l-14.759,15.933L295.229,426.381z"/>
	<path style="fill:#202020;" d="M264.952,283.689c4.473,0,8.097-3.624,8.097-8.097v-1.222c0-4.473-3.624-8.097-8.097-8.097
		s-8.097,3.624-8.097,8.097v1.222C256.855,280.064,260.48,283.689,264.952,283.689z"/>
	<path style="fill:#202020;" d="M304.282,283.689c4.473,0,8.097-3.624,8.097-8.097v-1.222c0-4.473-3.624-8.097-8.097-8.097
		c-4.473,0-8.097,3.624-8.097,8.097v1.222C296.184,280.064,299.809,283.689,304.282,283.689z"/>
	<path style="fill:#202020;" d="M343.609,283.689c4.473,0,8.097-3.624,8.097-8.097v-1.222c0-4.473-3.624-8.097-8.097-8.097
		s-8.097,3.624-8.097,8.097v1.222C335.512,280.064,339.136,283.689,343.609,283.689z"/>
	<path style="fill:#202020;" d="M382.938,283.689c4.473,0,8.097-3.624,8.097-8.097v-1.222c0-4.473-3.624-8.097-8.097-8.097
		s-8.097,3.624-8.097,8.097v1.222C374.841,280.064,378.465,283.689,382.938,283.689z"/>
	<path style="fill:#202020;" d="M284.616,313.64c4.473,0,8.097-3.624,8.097-8.097v-1.221c0-4.473-3.624-8.097-8.097-8.097
		s-8.097,3.624-8.097,8.097v1.221C276.519,310.015,280.144,313.64,284.616,313.64z"/>
	<path style="fill:#202020;" d="M323.943,313.64c4.473,0,8.097-3.624,8.097-8.097v-1.221c0-4.473-3.624-8.097-8.097-8.097
		s-8.097,3.624-8.097,8.097v1.221C315.846,310.015,319.47,313.64,323.943,313.64z"/>
	<path style="fill:#202020;" d="M363.273,313.64c4.473,0,8.097-3.624,8.097-8.097v-1.221c0-4.473-3.624-8.097-8.097-8.097
		s-8.097,3.624-8.097,8.097v1.221C355.175,310.015,358.8,313.64,363.273,313.64z"/>
</g>
<g style="opacity:0.15;">
	<path style="fill:#202020;" d="M112.988,50.238l0.658-9.987H88.928h-2.269l-11.304,159.88c-0.033,0.012-0.065,0.028-0.099,0.04
		c-0.208,0.081-0.416,0.158-0.62,0.248c-13.226,5.332-23.067,31.014-24.965,48.256c-0.017,0.144-0.036,0.29-0.051,0.432
		c-0.031,0.301-0.053,0.593-0.08,0.887c-0.027,0.314-0.059,0.633-0.082,0.939c-0.006,0.096-0.009,0.186-0.015,0.281
		c-0.071,1.061-0.112,2.09-0.112,3.064v71.752c0,0.001,0,0.001,0,0.001v139.344c0,14.872,8.436,27.77,20.779,34.19
		c-0.002,0-0.002,0-0.002,0c0.022,0.013,0.044,0.022,0.066,0.032c0.615,0.319,1.239,0.62,1.872,0.906
		c0.053,0.024,0.106,0.048,0.158,0.07c0.658,0.294,1.325,0.571,2.002,0.828c0.009,0.003,0.015,0.006,0.023,0.01
		c1.392,0.526,2.821,0.976,4.285,1.341c0.086,0.023,0.175,0.039,0.263,0.062c0.599,0.145,1.202,0.275,1.809,0.391
		c0.203,0.039,0.405,0.072,0.606,0.109c0.509,0.089,1.016,0.166,1.531,0.235c0.236,0.031,0.474,0.064,0.713,0.091
		c0.509,0.059,1.02,0.104,1.535,0.141c0.226,0.017,0.449,0.039,0.675,0.052c0.723,0.041,1.453,0.066,2.186,0.066
		c0.006,0,0.013,0.001,0.019,0.001h0.004h0.473c-7.779-7.046-12.677-17.215-12.677-28.538V336.02c0,0-0.002,0-0.002-0.001v-71.752
		c0-0.973,0.042-2.002,0.112-3.064c0.006-0.095,0.011-0.185,0.017-0.281c0.022-0.307,0.055-0.625,0.082-0.939
		c0.025-0.295,0.049-0.586,0.078-0.887c0.015-0.143,0.036-0.289,0.051-0.432c1.672-15.18,9.501-36.892,20.372-45.509l-0.002-0.004
		c0,0,0.017-0.009,0.023-0.011c0.511-0.405,1.029-0.774,1.553-1.118c1.608-1.44,3.918-4.431,4.309-9.957c0-0.001,0-0.002,0-0.004
		l10.735-151.821C112.977,50.238,112.988,50.238,112.988,50.238z"/>
</g>
</svg>