<?xml version="1.0" encoding="iso-8859-1"?>
<!-- Uploaded to: SVG Repo, www.svgrepo.com, Generator: SVG Repo Mixer Tools -->
<svg height="800px" width="800px" version="1.1" id="Layer_1" xmlns="http://www.w3.org/2000/svg" xmlns:xlink="http://www.w3.org/1999/xlink" 
	 viewBox="0 0 512.535 512.535" xml:space="preserve">
<g transform="translate(1 1)">
	<path style="fill:#FFE100;" d="M408.433,268.335c-0.853-21.333-18.773-38.4-40.96-38.4h-16.213c17.92,0,32.427,17.067,34.133,38.4
		l10.24,191.147c0.853,23.893-14.507,43.52-34.133,43.52h18.773c23.893,0,42.667-19.627,40.96-43.52L408.433,268.335z"/>
	<path style="fill:#FFFFFF;" d="M128.539,459.481l9.387-191.147c0.853-21.333,16.213-38.4,34.133-38.4h-17.067
		c-21.333,0-39.253,17.067-40.96,38.4l-11.093,191.147c-1.707,23.893,17.067,43.52,40.96,43.52h18.773
		C142.193,503.001,126.833,483.375,128.539,459.481"/>
	<path style="fill:#FFE100;" d="M340.166,503.001H157.553c-19.627,0-34.987-19.627-34.133-43.52l10.24-191.147
		c0.853-21.333,15.36-38.4,33.28-38.4h162.987c17.92,0,32.427,17.067,34.133,38.4l10.24,191.147
		C375.153,483.375,359.793,503.001,340.166,503.001"/>
	<path style="fill:#FFA800;" d="M385.393,268.335c-1.707-21.333-19.627-38.4-40.96-38.4h-16.213c17.92,0,32.427,17.067,34.133,38.4
		l10.24,191.147c0.853,23.893-14.507,43.52-34.133,43.52h18.773c23.893,0,42.667-19.627,40.96-43.52L385.393,268.335z"/>
	<path style="fill:#FDCC00;" d="M317.126,366.468c0-52.053-41.813-93.867-93.867-93.867c-5.973,0-68.267,41.813-68.267,93.867
		s62.293,93.867,68.267,93.867C275.313,460.335,317.126,418.521,317.126,366.468"/>
	<path style="fill:#FFA800;" d="M248.859,272.601c-4.267,0-8.533,0-12.8,0.853c46.08,5.973,81.067,45.227,81.067,93.013
		s-34.987,87.04-81.067,93.013c4.267,0.853,8.533,0.853,12.8,0.853c52.053,0,93.867-41.813,93.867-93.867
		S300.913,272.601,248.859,272.601"/>
	<path style="fill:#FFE100;" d="M274.459,366.468c0-14.507-11.093-25.6-25.6-25.6s-25.6,11.093-25.6,25.6
		c0,14.507,11.093,25.6,25.6,25.6S274.459,380.975,274.459,366.468"/>
	<polygon style="fill:#FDCC00;" points="223.259,229.935 274.459,229.935 274.459,195.801 223.259,195.801 	"/>
	<polygon style="fill:#FFE100;" points="248.859,229.935 300.059,229.935 300.059,195.801 248.859,195.801 	"/>
	<path style="fill:#FDCC00;" d="M162.673,195.801h175.787c4.267,0,7.68-2.56,9.387-7.68l2.56-7.68
		c3.413-8.533-1.707-19.627-9.387-19.627H160.966c-6.827,0-11.947,8.533-10.24,17.067l1.707,7.68
		C153.286,191.535,157.553,195.801,162.673,195.801"/>
	<path style="fill:#FFFFFF;" d="M151.579,185.561l-1.707-7.68c-1.707-8.533,3.413-17.067,10.24-17.067h-22.187
		c-8.533,0-15.36,8.533-12.8,17.067l1.707,7.68c0.853,5.973,6.827,10.24,12.8,10.24h22.187
		C156.699,195.801,152.433,191.535,151.579,185.561"/>
	<path style="fill:#FFA800;" d="M363.206,161.668h-23.04c7.68,0,12.8,10.24,9.387,19.627l-2.56,7.68
		c-1.707,4.267-5.12,7.68-9.387,7.68h22.187c5.12,0,9.387-2.56,11.947-7.68l3.413-7.68
		C379.419,171.908,373.446,161.668,363.206,161.668"/>
	<path style="fill:#FFE100;" d="M388.806,161.668h-23.04c7.68,0,12.8,10.24,9.387,19.627l-2.56,7.68
		c-1.707,4.267-5.12,7.68-9.387,7.68h22.187c5.12,0,9.387-2.56,11.947-7.68l3.413-7.68
		C405.019,171.908,399.046,161.668,388.806,161.668"/>
	<g>
		<path style="fill:#00DA6C;" d="M257.393,42.201c-0.853,0-1.707,0-2.56-0.853c-4.267-1.707-6.827-5.973-5.12-11.093l8.533-25.6
			c1.707-4.267,5.973-6.827,11.093-5.12c4.267,1.707,6.827,5.973,5.12,11.093l-8.533,25.6
			C264.219,39.641,260.806,42.201,257.393,42.201z"/>
		<path style="fill:#00DA6C;" d="M253.979,161.668h-28.16c-17.067,0-32.427-10.24-38.4-26.453l-1.707-4.267
			c-6.827-26.453-7.68-52.907,0-74.24l0,0c6.827-17.92,25.6-29.013,44.373-26.453l-6.827,3.413l27.307-4.267
			c18.773-2.56,37.547,8.533,44.373,26.453c7.68,23.893,6.827,50.347,0,74.24l-1.707,4.267
			C287.259,151.428,271.899,161.668,253.979,161.668"/>
	</g>
	<path style="fill:#00AD55;" d="M320.539,55.855c-6.827-17.92-25.6-29.013-44.373-26.453l-8.533,0.853
		c11.947,3.413,23.04,12.8,27.307,24.747c6.827,23.893,6.827,50.347,0,74.24l-1.707,4.267c-5.973,16.213-21.333,26.453-38.4,26.453
		h25.6c17.067,0,32.427-10.24,38.4-26.453l1.707-4.267C327.366,106.201,327.366,79.748,320.539,55.855"/>
	<path style="fill:#00DA6C;" d="M346.139,55.855c-6.827-17.92-25.6-29.013-44.373-26.453l-8.533,0.853
		c11.947,3.413,23.04,12.8,27.307,24.747c6.827,23.893,6.827,50.347,0,74.24l-1.707,4.267c-5.973,16.213-21.333,26.453-38.4,26.453
		h25.6c17.067,0,32.427-10.24,38.4-26.453l1.707-4.267C352.966,106.201,352.966,79.748,346.139,55.855"/>
	<path d="M358.939,511.535h-220.16c-13.653,0-26.453-5.12-35.84-15.36c-9.387-10.24-14.507-23.04-13.653-36.693l6.827-110.08
		c0-5.12,4.267-8.533,9.387-7.68c5.12,0,8.533,4.267,7.68,9.387l-6.827,109.227c-0.853,9.387,2.56,17.92,8.533,23.893
		c6.827,6.827,14.507,10.24,23.893,10.24h220.16c9.387,0,17.067-3.413,23.893-10.24c5.973-6.827,9.387-15.36,8.533-23.893
		l-11.947-191.147c-0.853-17.067-15.36-30.72-32.427-30.72H150.726c-17.067,0-31.573,13.653-32.427,30.72l-1.707,21.333
		c0,5.12-4.267,8.533-9.387,7.68c-5.12,0-8.533-4.267-7.68-9.387l1.707-21.333c1.707-25.6,23.04-46.08,49.493-46.08h196.267
		c26.453,0,47.787,20.48,49.493,46.08l11.947,191.147c0.853,13.653-4.267,27.307-13.653,36.693
		C385.393,506.415,372.593,511.535,358.939,511.535z"/>
	<path d="M114.033,319.535c0-5.12-3.413-8.533-8.533-8.533s-8.533,3.413-8.533,8.533c0,5.12,3.413,8.533,8.533,8.533
		S114.033,324.655,114.033,319.535"/>
	<path d="M274.459,238.468h-51.2c-5.12,0-8.533-3.413-8.533-8.533v-34.133c0-5.12,3.413-8.533,8.533-8.533h51.2
		c5.12,0,8.533,3.413,8.533,8.533v34.133C282.993,235.055,278.726,238.468,274.459,238.468z M231.793,221.401h34.133v-17.067
		h-34.133V221.401z"/>
	<path d="M359.793,204.335h-220.16c-10.24,0-18.773-6.827-21.333-16.213l-1.707-7.68c-1.707-6.827,0-13.653,4.267-18.773
		c4.267-5.12,10.24-8.533,17.067-8.533h226.133c7.68,0,14.507,4.267,18.773,10.24c4.267,6.827,4.267,14.507,0.853,21.333
		l-3.413,7.68C376.006,200.068,368.326,204.335,359.793,204.335z M137.926,170.201c-1.707,0-3.413,0.853-3.413,1.707
		c-0.853,0.853-1.707,2.56-0.853,4.267l1.707,7.68c0,1.707,2.56,3.413,4.267,3.413h220.16c1.707,0,3.413-0.853,4.267-2.56
		l3.413-7.68c0.853-2.56,0-4.267,0-5.12s-1.707-2.56-4.267-2.56h-225.28V170.201z"/>
	<path d="M279.579,170.201h-62.293c-20.48,0-39.253-12.8-46.933-32.427l-1.707-4.267c-7.68-29.867-7.68-57.173,0-80.213
		c8.533-22.187,30.72-34.987,53.76-32.427l26.453,4.267l25.6-3.413c23.04-3.413,45.227,10.24,53.76,31.573
		c7.68,25.6,7.68,53.76,0,80.213l-1.707,5.12C319.686,157.401,300.913,170.201,279.579,170.201z M216.433,37.935
		c-13.653,0-25.6,8.533-30.72,21.333c-6.827,19.627-6.827,44.373,0,69.12l1.707,3.413c5.12,12.8,17.067,21.333,30.72,21.333h62.293
		c13.653,0,25.6-8.533,30.72-21.333l1.707-4.267c6.827-22.187,6.827-46.933,0-69.12c-5.12-13.653-20.48-22.187-34.987-20.48
		l-28.16,4.267c-0.853,0-1.707,0-2.56,0l-27.307-4.267C218.993,37.935,217.286,37.935,216.433,37.935z"/>
	<path d="M248.859,42.201c-0.853,0-1.707,0-2.56-0.853c-4.267-1.707-6.827-5.973-5.12-11.093l8.533-25.6
		c1.707-4.267,5.973-6.827,11.093-5.12c4.267,1.707,6.827,5.973,5.12,11.093l-8.533,25.6
		C255.686,39.641,252.273,42.201,248.859,42.201z"/>
	<path d="M248.859,468.868c-56.32,0-102.4-46.08-102.4-102.4s46.08-102.4,102.4-102.4s102.4,46.08,102.4,102.4
		S305.179,468.868,248.859,468.868z M248.859,281.135c-46.933,0-85.333,38.4-85.333,85.333s38.4,85.333,85.333,85.333
		s85.333-38.4,85.333-85.333S295.793,281.135,248.859,281.135z"/>
	<path d="M248.859,400.601c-18.773,0-34.133-15.36-34.133-34.133s15.36-34.133,34.133-34.133c18.773,0,34.133,15.36,34.133,34.133
		S267.633,400.601,248.859,400.601z M248.859,349.401c-9.387,0-17.067,7.68-17.067,17.067s7.68,17.067,17.067,17.067
		c9.387,0,17.067-7.68,17.067-17.067S258.246,349.401,248.859,349.401z"/>
	<path d="M288.113,410.841c-2.56,0-4.267-0.853-5.973-2.56l-19.627-19.627c-3.413-3.413-3.413-8.533,0-11.947
		c3.413-3.413,8.533-3.413,11.947,0l19.627,19.627c3.413,3.413,3.413,8.533,0,11.947
		C292.379,409.988,290.673,410.841,288.113,410.841z"/>
</g>
</svg>